<?xml version="1.0" encoding="UTF-8"?>
<svg version="1.1" xmlns="http://www.w3.org/2000/svg" width="723" height="320">
<path d="M0 0 C238.59 0 477.18 0 723 0 C723 105.6 723 211.2 723 320 C484.41 320 245.82 320 0 320 C0 214.4 0 108.8 0 0 Z " fill="#FEFEFE" transform="translate(0,0)"/>
<path d="M0 0 C208.56 0 417.12 0 632 0 C632 54.78 632 109.56 632 166 C423.44 166 214.88 166 0 166 C0 111.22 0 56.44 0 0 Z " fill="#72B801" transform="translate(44,38)"/>
<path d="M0 0 C2.97 0 5.94 0 9 0 C9 24.09 9 48.18 9 73 C5.7 73 2.4 73 -1 73 C-1.33 71.02 -1.66 69.04 -2 67 C-2.886875 67.78375 -3.77375 68.5675 -4.6875 69.375 C-9.61712682 73.41249018 -13.94411238 74.60041874 -20.30859375 74.4296875 C-26.41573119 73.45467281 -31.19164973 70.36589437 -34.92578125 65.48046875 C-40.08594859 57.06902652 -40.72567293 49.70214765 -40 40 C-39.10408212 36.65771567 -37.83231553 33.9240436 -36 31 C-35.443125 30.0925 -34.88625 29.185 -34.3125 28.25 C-29.61160536 23.67615657 -24.58901249 20.72446818 -17.9375 20.4375 C-12.22303268 20.74013534 -7.56754656 22.74684689 -3.27734375 26.51171875 C-2 28 -2 28 -2 30 C-1.34 30 -0.68 30 0 30 C0 20.1 0 10.2 0 0 Z " fill="#F9FCF4" transform="translate(311,75)"/>
<path d="M0 0 C6.33854728 5.04043151 9.34852794 10.0586046 10.27734375 18.1171875 C10.64877085 27.57429281 9.37184704 34.50734372 3 41.65234375 C-2.44822761 46.82498008 -7.54252164 48.5534169 -15.0078125 48.93359375 C-21.57895753 48.74442442 -26.51099456 46.93673154 -31.40234375 42.5 C-38.52306183 34.89173726 -39.62522265 28.56152419 -39.43359375 18.25390625 C-38.81426399 10.64499773 -36.26597508 6.32273126 -30.7578125 1.12109375 C-21.55667593 -6.40438868 -9.8482387 -6.65567781 0 0 Z " fill="#FBFDF8" transform="translate(537.1328125,100.44140625)"/>
<path d="M0 0 C4.31236921 -0.08789715 8.6245045 -0.1406923 12.9375 -0.1875 C14.14986328 -0.21263672 15.36222656 -0.23777344 16.61132812 -0.26367188 C24.98522998 -0.33175238 32.5095306 0.10751138 39.375 5.3125 C43.66904387 9.70878301 45.36217505 13.67392053 45.46826172 19.86206055 C45.45811035 20.54695557 45.44795898 21.23185059 45.4375 21.9375 C45.42992676 22.64753174 45.42235352 23.35756348 45.41455078 24.08911133 C45.21056825 30.53540587 44.11425096 33.84308807 39.57421875 38.4453125 C31.2623882 45.96247191 21.08918309 45.14371477 10.5625 45.0625 C9.44939453 45.05798828 8.33628906 45.05347656 7.18945312 45.04882812 C4.45957899 45.03711193 1.72981826 45.02070699 -1 45 C-1 41.7 -1 38.4 -1 35 C0.65 35 2.3 35 4 35 C4 26.42 4 17.84 4 9 C2.68 9 1.36 9 0 9 C0 6.03 0 3.06 0 0 Z " fill="#3A5435" transform="translate(45,223)"/>
<path d="M0 0 C6.74467104 3.463071 8.99490851 7.98708693 11.7421875 14.89453125 C11.7421875 18.85453125 11.7421875 22.81453125 11.7421875 26.89453125 C-0.1378125 26.89453125 -12.0178125 26.89453125 -24.2578125 26.89453125 C-23.2678125 29.86453125 -22.2778125 32.83453125 -21.2578125 35.89453125 C-20.9278125 36.88453125 -20.5978125 37.87453125 -20.2578125 38.89453125 C-17.83398173 40.06406541 -17.83398173 40.06406541 -15.2578125 40.89453125 C-14.5978125 41.22453125 -13.9378125 41.55453125 -13.2578125 41.89453125 C-8.48525327 42.29224452 -6.17298578 42.36906554 -1.8828125 40.14453125 C1.05040986 37.9248482 1.05040986 37.9248482 2.7421875 33.89453125 C5.7121875 33.89453125 8.6821875 33.89453125 11.7421875 33.89453125 C10.20816337 41.00682496 6.87280364 44.87131441 0.7421875 48.89453125 C-5.40191273 51.71101183 -11.60855592 52.1279392 -18.0546875 49.94921875 C-22.84022718 47.69803292 -26.51210528 45.5411127 -29.2578125 40.89453125 C-29.62648437 40.29253906 -29.99515625 39.69054687 -30.375 39.0703125 C-34.66278924 31.07136775 -34.60086025 21.50421096 -32.0703125 12.89453125 C-29.38777572 6.2190941 -25.03575688 2.06153749 -18.71875 -1.19140625 C-12.42856346 -3.52776125 -6.05036566 -2.66070297 0 0 Z " fill="#F9FCF5" transform="translate(192.2578125,98.10546875)"/>
<path d="M0 0 C1.2684375 -0.00773437 2.536875 -0.01546875 3.84375 -0.0234375 C10.27310127 0.67719693 14.38166426 3.49802346 18.5 8.375 C23.29667093 15.09346417 22.5 19.4784363 22.5 28.375 C10.62 28.375 -1.26 28.375 -13.5 28.375 C-10.77584077 38.9876912 -10.77584077 38.9876912 -5.5 42.375 C-1.89483826 43.74247514 1.68928585 43.70350984 5.5 43.375 C9.20390021 41.34833762 11.15363011 39.89455484 13.5 36.375 C15.4453125 36.08203125 15.4453125 36.08203125 17.625 36.1875 C18.90375 36.249375 20.1825 36.31125 21.5 36.375 C20.68342417 42.2339316 17.90197698 45.55940269 13.5 49.375 C7.75180556 52.58378876 0.95773612 53.43098201 -5.5 52.375 C-13.3100055 49.65409486 -17.98675412 44.35845673 -21.640625 37.11328125 C-22.7483636 33.58362324 -22.8424614 30.22592302 -22.8125 26.5625 C-22.80686035 25.84908447 -22.8012207 25.13566895 -22.79541016 24.40063477 C-22.60736126 16.2596071 -20.54328431 11.10951736 -15.29296875 4.91796875 C-10.53160051 0.820495 -6.17142369 -0.03763063 0 0 Z " fill="#FAFCF7" transform="translate(615.5,96.625)"/>
<path d="M0 0 C0.33 0.66 0.66 1.32 1 2 C1.99 1.34 2.98 0.68 4 0 C6.12109375 -0.265625 6.12109375 -0.265625 8.4375 -0.25 C9.19933594 -0.25515625 9.96117187 -0.2603125 10.74609375 -0.265625 C13.21443018 0.0252708 14.857686 0.77024344 17 2 C17 2.66 17 3.32 17 4 C17.99 3.34 18.98 2.68 20 2 C24.25515489 -0.42044236 27.14552368 -0.54808604 32 0 C35.14739641 1.30001156 36.54753807 2.1327813 38.125 5.15625 C39.20203048 8.65659907 39.19333861 11.65638437 39.125 15.3125 C39.10695313 16.56675781 39.08890625 17.82101563 39.0703125 19.11328125 C39.04710937 20.06589844 39.02390625 21.01851563 39 22 C40.32 22 41.64 22 43 22 C43 24.97 43 27.94 43 31 C37.06 31 31.12 31 25 31 C24.67 23.74 24.34 16.48 24 9 C22.68 9.33 21.36 9.66 20 10 C19.67 13.96 19.34 17.92 19 22 C19.99 22 20.98 22 22 22 C22 24.97 22 27.94 22 31 C16.72 31 11.44 31 6 31 C5.67 23.74 5.34 16.48 5 9 C3.68 9.33 2.36 9.66 1 10 C0.67 13.96 0.34 17.92 0 22 C0.99 22 1.98 22 3 22 C3 24.97 3 27.94 3 31 C-3.93 31 -10.86 31 -18 31 C-18 28.03 -18 25.06 -18 22 C-16.68 22 -15.36 22 -14 22 C-14 17.71 -14 13.42 -14 9 C-15.32 9 -16.64 9 -18 9 C-18 6.36 -18 3.72 -18 1 C-16.12528812 0.83012319 -14.25021305 0.66425224 -12.375 0.5 C-11.33085937 0.4071875 -10.28671875 0.314375 -9.2109375 0.21875 C-6.12853212 0.00875645 -3.08834771 -0.03709727 0 0 Z " fill="#3B5536" transform="translate(426,237)"/>
<path d="M0 0 C0.33 0.66 0.66 1.32 1 2 C1.99 1.34 2.98 0.68 4 0 C8.60183667 -0.75382467 12.1698571 -0.39969844 16.375 1.625 C20.07917833 4.97639944 21.74110959 7.58728522 22.28125 12.62109375 C22.50826078 19.5922164 21.62731541 24.06358866 16.875 29.375 C12.87882132 31.63370969 9.49444664 31.70708292 5 31 C1.9375 29.5 1.9375 29.5 0 28 C0 29.98 0 31.96 0 34 C1.32 34 2.64 34 4 34 C4 36.64 4 39.28 4 42 C-2.93 42 -9.86 42 -17 42 C-17 39.36 -17 36.72 -17 34 C-15.68 34 -14.36 34 -13 34 C-13 25.75 -13 17.5 -13 9 C-14.32 9 -15.64 9 -17 9 C-17 6.36 -17 3.72 -17 1 C-11.30494264 0.3583034 -5.73266804 -0.12462322 0 0 Z " fill="#375232" transform="translate(495,237)"/>
<path d="M0 0 C2.97 0 5.94 0 9 0 C12.56311284 8.32114338 15.78623955 16.72007453 18.8125 25.25 C19.21919922 26.38824219 19.62589844 27.52648437 20.04492188 28.69921875 C21.03275744 31.46515833 22.01774036 34.23207645 23 37 C25.17637992 33.73543011 26.44383174 30.43034089 27.78515625 26.77734375 C28.04630722 26.0760585 28.30745819 25.37477325 28.57652283 24.65223694 C29.40882314 22.41532382 30.23587843 20.17651713 31.0625 17.9375 C31.89363807 15.69527633 32.72586155 13.45346234 33.55918884 11.21205139 C34.07708502 9.81810256 34.59353912 8.42361693 35.1084137 7.02854919 C36.88979846 2.22040307 36.88979846 2.22040307 38 0 C40.97 0 43.94 0 47 0 C46.35391638 6.03734214 44.12409604 11.40266108 41.95703125 17.0234375 C41.34791145 18.61365219 41.34791145 18.61365219 40.72648621 20.23599243 C39.86623146 22.47459598 39.00282152 24.71198926 38.13647461 26.94824219 C36.82171605 30.3511467 35.52671656 33.76114374 34.23242188 37.171875 C33.39183093 39.35202785 32.5500716 41.53173064 31.70703125 43.7109375 C31.13478569 45.22849136 31.13478569 45.22849136 30.55097961 46.77670288 C27.02089119 55.78243204 22.57133993 62.83716022 14.2734375 68.09375 C11.18788705 69.32372888 8.55848185 69.19116964 5.25 69.125 C4.07953125 69.10695313 2.9090625 69.08890625 1.703125 69.0703125 C0.81109375 69.04710937 -0.0809375 69.02390625 -1 69 C-1 66.69 -1 64.38 -1 62 C0.08667969 61.85304688 0.08667969 61.85304688 1.1953125 61.703125 C6.94665766 60.81358362 11.58398716 60.07631954 16 56 C17.65464987 53.05409378 18.22705112 50.99974469 17.47052002 47.66860962 C16.49314226 44.8137569 15.40034657 42.03116921 14.2578125 39.23828125 C13.8554538 38.21067184 13.45309509 37.18306244 13.0385437 36.12431335 C11.75156778 32.84645946 10.43945727 29.57941894 9.125 26.3125 C7.82249038 23.03318119 6.52527507 19.75186923 5.23287964 16.46855164 C4.42742645 14.42690848 3.61521517 12.38791624 2.79568481 10.35188293 C2.4288559 9.43050034 2.06202698 8.50911774 1.68408203 7.55981445 C1.35828156 6.74962357 1.03248108 5.93943268 0.69680786 5.10469055 C0 3 0 3 0 0 Z " fill="#FBFDF8" transform="translate(332,97)"/>
<path d="M0 0 C2.97 0 5.94 0 9 0 C9.33 1.98 9.66 3.96 10 6 C10.35449219 5.566875 10.70898438 5.13375 11.07421875 4.6875 C13.9482128 1.68128831 16.00316191 0.15778173 20.18359375 -0.50390625 C26.0564691 -0.60389845 30.1333892 -0.5370728 35 3 C39.03603437 6.91373029 40.94827805 10.21375742 41.11352539 15.9206543 C41.11336723 17.55518433 41.1077281 19.18971974 41.09765625 20.82421875 C41.0962413 21.68561966 41.09482635 22.54702057 41.09336853 23.43452454 C41.0877714 26.18555169 41.07521946 28.93649744 41.0625 31.6875 C41.05748463 33.5527332 41.05292179 35.41796767 41.04882812 37.28320312 C41.03780292 41.85550011 41.02054027 46.42773625 41 51 C38.03 51 35.06 51 32 51 C31.97494385 49.90010742 31.9498877 48.80021484 31.92407227 47.66699219 C31.82981794 43.58175235 31.72964135 39.49667539 31.62768555 35.41162109 C31.58440486 33.64440728 31.54272495 31.8771535 31.50268555 30.10986328 C31.44481649 27.5679114 31.38117019 25.02615941 31.31640625 22.484375 C31.29969376 21.69569031 31.28298126 20.90700562 31.26576233 20.09442139 C31.17086527 14.95669168 31.17086527 14.95669168 30 10 C25.68429841 7.944904 21.73195769 7.48378643 17 8 C12.95027199 10.4298368 11.38620002 12.55555804 10 17 C9.76903096 19.67206065 9.62896057 22.2519183 9.5859375 24.92578125 C9.56657135 25.67337204 9.5472052 26.42096283 9.5272522 27.19120789 C9.46776082 29.56485806 9.42119408 31.93855754 9.375 34.3125 C9.33679211 35.92775482 9.29773875 37.54298987 9.2578125 39.15820312 C9.1620847 43.1053071 9.07794233 47.05250639 9 51 C6.03 51 3.06 51 0 51 C0 34.17 0 17.34 0 0 Z " fill="#FCFDFA" transform="translate(217,97)"/>
<path d="M0 0 C3.89348947 2.25117395 6.75212436 5.33158032 8.625 9.4375 C8.625 10.7575 8.625 12.0775 8.625 13.4375 C5.57475136 13.72525931 2.66319925 13.89160807 -0.375 13.4375 C-2.3125 11 -2.3125 11 -3.375 8.4375 C-5.70186453 7.27406773 -7.22221413 7.23854012 -9.8125 7.1875 C-10.98619141 7.14882812 -10.98619141 7.14882812 -12.18359375 7.109375 C-14.89837628 7.5158665 -15.75544746 8.2557461 -17.375 10.4375 C-17.62569913 13.06320704 -17.62569913 13.06320704 -17.375 15.4375 C-12.37935919 17.80916786 -7.40783563 19.78988295 -2.125 21.4375 C3.00693047 23.10896845 6.63581444 24.78525259 9.9375 29.1875 C11.44384289 34.11734946 11.36126754 38.59983088 9.0625 43.1875 C6.6394119 46.99148777 3.63674542 48.50591887 -0.375 50.4375 C-1.365 50.9325 -1.365 50.9325 -2.375 51.4375 C-9.80342969 52.13462956 -16.23828864 52.00297609 -22.375 47.4375 C-26.09348279 43.6211624 -28.375 39.83505349 -28.375 34.4375 C-25.3017025 34.08288875 -22.43376629 33.90830168 -19.375 34.4375 C-17 37.3125 -17 37.3125 -15.375 40.4375 C-11.08965609 43.29439594 -7.41101927 42.78405647 -2.4375 41.9375 C-1.4165625 41.69 -1.4165625 41.69 -0.375 41.4375 C-0.045 38.7975 0.285 36.1575 0.625 33.4375 C-4.13012343 30.2333641 -9.0325595 28.91577936 -14.4921875 27.41992188 C-19.62723528 25.923007 -23.63842854 24.13529298 -26.65234375 19.453125 C-27.99828307 15.6990456 -28.21880743 12.34330559 -27.375 8.4375 C-21.3948468 -1.42303351 -10.69802268 -4.72986581 0 0 Z " fill="#F9FBF4" transform="translate(438.375,97.5625)"/>
<path d="M0 0 C5.18548629 2.83734155 7.42485316 6.32627535 9.3125 11.8125 C10.22130764 18.88217807 9.59063271 24.97993322 5.3125 30.8125 C0.73127682 35.06649295 -2.25196607 36.17824206 -8.37109375 36.08984375 C-11.99913158 35.65545811 -13.98207928 34.20333691 -16.6875 31.8125 C-21.84397374 24.9836564 -22.46894659 19.19134401 -21.6875 10.8125 C-20.08204853 5.89144223 -16.91567125 2.70545928 -12.6875 -0.1875 C-8.47875789 -2.29187105 -4.32071998 -1.3914183 0 0 Z " fill="#74B905" transform="translate(528.6875,105.1875)"/>
<path d="M0 0 C5.25718726 1.89258741 7.83002532 4.56203544 11 9 C12.93112637 14.78123367 13.01270915 22.15348433 10.875 27.875 C8.38276124 32.02873127 5.81288225 35.07380706 1.078125 36.6328125 C-3.98133243 37.55449661 -7.49366711 36.59980743 -12 34 C-16.41575084 29.46490454 -18.285404 24.92933549 -18.3125 18.625 C-18.18503158 13.04638222 -17.60466979 8.66718186 -13.53515625 4.5 C-8.84721888 0.46539376 -6.16689894 -0.4111266 0 0 Z " fill="#73B803" transform="translate(298,104)"/>
<path d="M0 0 C3.66777697 2.56744388 6.06506505 4.44519514 7.5 8.75 C7.88936949 13.58716712 8.14769377 18.14781015 6.3125 22.6875 C2.59488619 26.91788813 -0.66697888 29.44383219 -6.35546875 30.05859375 C-13.23924092 30.32490616 -17.81585125 30.12182761 -23.04296875 25.37890625 C-26.80553392 21.17249961 -27.00130721 16.72930897 -26.87890625 11.25390625 C-26.07744701 5.95766532 -23.08101856 2.94540427 -18.9375 -0.1875 C-12.65357208 -2.12980499 -6.20821635 -2.21722012 0 0 Z " fill="#3A5435" transform="translate(337.5,238.25)"/>
<path d="M0 0 C7.92 0 15.84 0 24 0 C24 2.97 24 5.94 24 9 C22.35 9 20.7 9 19 9 C19 17.58 19 26.16 19 35 C20.65 35 22.3 35 24 35 C24 38.3 24 41.6 24 45 C15.75 45 7.5 45 -1 45 C-1 41.7 -1 38.4 -1 35 C0.65 35 2.3 35 4 35 C4 26.75 4 18.5 4 10 C2.68 10 1.36 10 0 10 C0 6.7 0 3.4 0 0 Z " fill="#3A5536" transform="translate(374,223)"/>
<path d="M0 0 C2.97 0 5.94 0 9 0 C9 4.29 9 8.58 9 13 C12.96 13 16.92 13 21 13 C21 15.31 21 17.62 21 20 C17.04 20 13.08 20 9 20 C9.09372888 24.34200946 9.19986502 28.68348678 9.31738281 33.02490234 C9.35560666 34.50105536 9.39047103 35.97729943 9.421875 37.45361328 C9.46766986 39.57878094 9.52563837 41.70332542 9.5859375 43.828125 C9.63306885 45.7447998 9.63306885 45.7447998 9.68115234 47.70019531 C9.97511752 50.74248726 10.29775581 52.499947 12 55 C14.29629994 56.14814997 16.07698086 56.30769809 18.625 56.5625 C19.44226563 56.64628906 20.25953125 56.73007813 21.1015625 56.81640625 C22.04128906 56.90728516 22.04128906 56.90728516 23 57 C23.04241723 59.33294775 23.04092937 61.66702567 23 64 C21.29441557 65.70558443 19.14005782 65.21230676 16.8125 65.25 C12.10994222 65.19517744 8.93313141 64.781971 5 62 C0.36173379 56.98565815 -0.14590778 53.09177444 -0.09765625 46.48828125 C-0.0962413 45.76005661 -0.09482635 45.03183197 -0.09336853 44.28153992 C-0.08777659 41.95848461 -0.07522562 39.63552612 -0.0625 37.3125 C-0.05748396 35.73632952 -0.05292123 34.16015752 -0.04882812 32.58398438 C-0.0378098 28.72261902 -0.02055074 24.86132592 0 21 C-2.97 21 -5.94 21 -9 21 C-9 18.36 -9 15.72 -9 13 C-6.03 13 -3.06 13 0 13 C0 8.71 0 4.42 0 0 Z " fill="#FAFCF7" transform="translate(465,84)"/>
<path d="M0 0 C2.97 0 5.94 0 9 0 C9 4.29 9 8.58 9 13 C12.96 13 16.92 13 21 13 C21 15.64 21 18.28 21 21 C17.04 21 13.08 21 9 21 C9.0441292 25.50308046 9.11393215 30.00475542 9.20751953 34.50708008 C9.23573878 36.03854178 9.25694869 37.57014939 9.27099609 39.10180664 C9.29241426 41.30430849 9.33905138 43.50505459 9.390625 45.70703125 C9.39185364 46.39150833 9.39308228 47.07598541 9.39434814 47.78120422 C9.49285616 50.98062671 9.6023279 52.59534399 11.890625 54.92382812 C14.27158879 56.13856058 16.09136621 56.49201222 18.75 56.6875 C19.54921875 56.75324219 20.3484375 56.81898438 21.171875 56.88671875 C21.77515625 56.92410156 22.3784375 56.96148437 23 57 C23 59.31 23 61.62 23 64 C19.30506957 65.84746521 15.04115396 65.3419438 11 65 C6.26170231 63.33282118 3.7988062 61.14637955 1 57 C-0.21077701 53.36766898 -0.12444164 50.04878013 -0.09765625 46.26953125 C-0.0962413 45.51911057 -0.09482635 44.76868988 -0.09336853 43.99552917 C-0.0877756 41.6011454 -0.07522444 39.20685547 -0.0625 36.8125 C-0.05748408 35.18815239 -0.05292134 33.56380332 -0.04882812 31.93945312 C-0.03780848 27.95959931 -0.02054873 23.97981556 0 20 C-2.97 20 -5.94 20 -9 20 C-9 17.69 -9 15.38 -9 13 C-6.03 13 -3.06 13 0 13 C0 8.71 0 4.42 0 0 Z " fill="#FBFDF8" transform="translate(91,84)"/>
<path d="M0 0 C3.5 1.8125 3.5 1.8125 6 4 C6.8971875 4.7734375 6.8971875 4.7734375 7.8125 5.5625 C10.98341473 9.40097573 10 12.88768012 10 18 C4.06 18 -1.88 18 -8 18 C-4.53684731 22.29607942 -4.53684731 22.29607942 -0.625 22.375 C2.87353326 22.01308277 5.73324562 21.27483098 9 20 C9.48828125 25.95703125 9.48828125 25.95703125 9 28 C4.24042857 31.94263006 -0.6328411 31.48547991 -6.5390625 31.35546875 C-12.17985518 30.77610968 -16.06452118 29.06034842 -19.9375 24.9375 C-22.56316118 20.14952961 -22.58126651 15.32274043 -22 10 C-19.99064786 5.65979938 -17.43038583 2.90367851 -13.125 0.6953125 C-8.78744013 -0.72396261 -4.47999548 -0.68247292 0 0 Z " fill="#3C5637" transform="translate(586,237)"/>
<path d="M0 0 C3.46236126 2.39067801 5.74528805 5.0530761 7.625 8.8125 C7.625 11.1225 7.625 13.4325 7.625 15.8125 C1.355 15.8125 -4.915 15.8125 -11.375 15.8125 C-7.13569959 21.07208907 -7.13569959 21.07208907 -2.9375 21.25 C0.50361986 20.82740633 3.40217541 20.07018764 6.625 18.8125 C6.625 21.4525 6.625 24.0925 6.625 26.8125 C0.00780441 30.59375462 -6.89579008 30.87972903 -14.375 29.8125 C-18.60751881 27.9145095 -21.31958471 25.39562293 -23.875 21.5625 C-24.84487089 16.22821009 -25.284783 11.01513253 -23.1875 5.9375 C-16.90952939 -1.42287933 -9.08701992 -3.19728479 0 0 Z " fill="#395435" transform="translate(162.375,238.1875)"/>
<path d="M0 0 C1.41732422 -0.02126953 1.41732422 -0.02126953 2.86328125 -0.04296875 C5.83156882 0.19925665 7.99617165 0.94723393 10.6875 2.1875 C10.6875 1.5275 10.6875 0.8675 10.6875 0.1875 C12.6675 0.1875 14.6475 0.1875 16.6875 0.1875 C16.6875 3.4875 16.6875 6.7875 16.6875 10.1875 C10.10656874 10.56000554 10.10656874 10.56000554 8 8.6875 C7.566875 8.1925 7.13375 7.6975 6.6875 7.1875 C5.3675 7.1875 4.0475 7.1875 2.6875 7.1875 C2.6875 7.8475 2.6875 8.5075 2.6875 9.1875 C3.51894531 9.50203125 4.35039063 9.8165625 5.20703125 10.140625 C6.29371094 10.56859375 7.38039063 10.9965625 8.5 11.4375 C10.11841797 12.06398437 10.11841797 12.06398437 11.76953125 12.703125 C14.78998968 14.23963665 16.05275248 15.25951043 17.6875 18.1875 C18.22311062 22.39586916 18.15524118 24.44556572 15.875 28.0625 C12.2519904 31.58199504 9.03226662 31.32341164 4.1875 31.3125 C3.0428125 31.31507813 1.898125 31.31765625 0.71875 31.3203125 C-2.3125 31.1875 -2.3125 31.1875 -5.3125 30.1875 C-5.6425 30.5175 -5.9725 30.8475 -6.3125 31.1875 C-8.31208364 31.22830783 -10.31295254 31.23004356 -12.3125 31.1875 C-12.3125 27.5575 -12.3125 23.9275 -12.3125 20.1875 C-9.0625 19.9375 -9.0625 19.9375 -5.3125 20.1875 C-3.125 22.125 -3.125 22.125 -1.3125 24.1875 C0.8256966 24.9747678 0.8256966 24.9747678 2.6875 25.1875 C2.6875 23.8675 2.6875 22.5475 2.6875 21.1875 C2.02363281 21.02894531 1.35976563 20.87039063 0.67578125 20.70703125 C-4.82819716 19.25269535 -8.96120599 18.10273122 -12.3125 13.1875 C-12.9375 9.6875 -12.9375 9.6875 -12.3125 6.1875 C-8.39206275 1.44170754 -6.01939777 0.04072664 0 0 Z " fill="#3A5536" transform="translate(618.3125,236.8125)"/>
<path d="M0 0 C0.95648438 -0.00257813 1.91296875 -0.00515625 2.8984375 -0.0078125 C5.30875869 0.1095957 7.30304156 0.54185975 9.625 1.125 C9.955 0.795 10.285 0.465 10.625 0.125 C12.62458364 0.08419217 14.62545254 0.08245644 16.625 0.125 C16.625 3.425 16.625 6.725 16.625 10.125 C15.34625 10.186875 14.0675 10.24875 12.75 10.3125 C12.03070313 10.34730469 11.31140625 10.38210937 10.5703125 10.41796875 C9.92835938 10.32128906 9.28640625 10.22460938 8.625 10.125 C7.965 9.135 7.305 8.145 6.625 7.125 C5.305 7.125 3.985 7.125 2.625 7.125 C2.625 7.785 2.625 8.445 2.625 9.125 C3.45644531 9.43953125 4.28789062 9.7540625 5.14453125 10.078125 C6.23121094 10.50609375 7.31789062 10.9340625 8.4375 11.375 C10.05591797 12.00148437 10.05591797 12.00148437 11.70703125 12.640625 C14.71835735 14.17249102 15.98089568 15.21533084 17.625 18.125 C18.07463189 21.64711647 17.84732631 23.63588212 16.375 26.875 C14.45941341 29.33789704 13.50449238 30.02805052 10.625 31.125 C7.53125 31.390625 7.53125 31.390625 4.125 31.375 C3.0009375 31.38015625 1.876875 31.3853125 0.71875 31.390625 C-2.22541743 31.13784295 -3.89195505 30.65864541 -6.375 29.125 C-6.375 29.785 -6.375 30.445 -6.375 31.125 C-8.355 31.125 -10.335 31.125 -12.375 31.125 C-12.375 27.495 -12.375 23.865 -12.375 20.125 C-9.125 19.875 -9.125 19.875 -5.375 20.125 C-3.1875 22.0625 -3.1875 22.0625 -1.375 24.125 C0.7631966 24.9122678 0.7631966 24.9122678 2.625 25.125 C2.625 23.805 2.625 22.485 2.625 21.125 C1.96113281 20.96644531 1.29726562 20.80789063 0.61328125 20.64453125 C-4.89069716 19.19019535 -9.02370599 18.04023122 -12.375 13.125 C-13 9.625 -13 9.625 -12.375 6.125 C-8.41464244 1.33088295 -6.07331699 -0.01628235 0 0 Z " fill="#3A5435" transform="translate(192.375,236.875)"/>
<path d="M0 0 C1.41732422 -0.02126953 1.41732422 -0.02126953 2.86328125 -0.04296875 C5.83156882 0.19925665 7.99617165 0.94723393 10.6875 2.1875 C10.6875 1.5275 10.6875 0.8675 10.6875 0.1875 C12.6675 0.1875 14.6475 0.1875 16.6875 0.1875 C16.6875 3.4875 16.6875 6.7875 16.6875 10.1875 C15.40875 10.249375 14.13 10.31125 12.8125 10.375 C12.09320312 10.40980469 11.37390625 10.44460937 10.6328125 10.48046875 C9.99085938 10.38378906 9.34890625 10.28710938 8.6875 10.1875 C8.0275 9.1975 7.3675 8.2075 6.6875 7.1875 C5.3675 7.1875 4.0475 7.1875 2.6875 7.1875 C2.6875 7.8475 2.6875 8.5075 2.6875 9.1875 C3.53054688 9.51363281 4.37359375 9.83976563 5.2421875 10.17578125 C6.33789062 10.61277344 7.43359375 11.04976562 8.5625 11.5 C9.65304687 11.92925781 10.74359375 12.35851562 11.8671875 12.80078125 C14.6875 14.1875 14.6875 14.1875 16.6875 17.1875 C17.16969153 20.23203491 17.15034898 23.14041087 16.6875 26.1875 C14.81129387 28.68910818 13.44858697 29.80695652 10.6875 31.1875 C8.56514193 31.3104938 6.43838537 31.36305682 4.3125 31.375 C3.17039062 31.38917969 2.02828125 31.40335937 0.8515625 31.41796875 C-2.15186816 31.19920034 -3.79175934 30.75830637 -6.3125 29.1875 C-6.3125 29.8475 -6.3125 30.5075 -6.3125 31.1875 C-8.2925 31.1875 -10.2725 31.1875 -12.3125 31.1875 C-12.3125 27.5575 -12.3125 23.9275 -12.3125 20.1875 C-9.0625 19.9375 -9.0625 19.9375 -5.3125 20.1875 C-3.125 22.125 -3.125 22.125 -1.3125 24.1875 C0.8256966 24.9747678 0.8256966 24.9747678 2.6875 25.1875 C2.6875 23.8675 2.6875 22.5475 2.6875 21.1875 C2.02363281 21.02894531 1.35976563 20.87039063 0.67578125 20.70703125 C-4.82819716 19.25269535 -8.96120599 18.10273122 -12.3125 13.1875 C-12.9375 9.6875 -12.9375 9.6875 -12.3125 6.1875 C-8.39206275 1.44170754 -6.01939777 0.04072664 0 0 Z " fill="#395435" transform="translate(658.3125,236.8125)"/>
<path d="M0 0 C0.95648438 -0.00257813 1.91296875 -0.00515625 2.8984375 -0.0078125 C5.30875869 0.1095957 7.30304156 0.54185975 9.625 1.125 C9.955 0.795 10.285 0.465 10.625 0.125 C12.62458364 0.08419217 14.62545254 0.08245644 16.625 0.125 C16.625 3.425 16.625 6.725 16.625 10.125 C15.34625 10.186875 14.0675 10.24875 12.75 10.3125 C12.03070313 10.34730469 11.31140625 10.38210937 10.5703125 10.41796875 C9.92835938 10.32128906 9.28640625 10.22460938 8.625 10.125 C7.965 9.135 7.305 8.145 6.625 7.125 C4.06217258 6.39534634 4.06217258 6.39534634 1.625 6.125 C2.32034727 8.12240775 2.32034727 8.12240775 3.625 10.125 C5.6590787 11.10601738 5.6590787 11.10601738 8 11.625 C14.49970096 13.61363636 14.49970096 13.61363636 16.625 17.125 C17.16906115 20.22901201 17.20628988 23.02478728 16.625 26.125 C14.74879387 28.62660818 13.38608697 29.74445652 10.625 31.125 C8.50264193 31.2479938 6.37588537 31.30055682 4.25 31.3125 C3.10789063 31.32667969 1.96578125 31.34085937 0.7890625 31.35546875 C-2.21436816 31.13670034 -3.85425934 30.69580637 -6.375 29.125 C-6.375 29.785 -6.375 30.445 -6.375 31.125 C-8.355 31.125 -10.335 31.125 -12.375 31.125 C-12.375 27.495 -12.375 23.865 -12.375 20.125 C-9.0625 19.875 -9.0625 19.875 -5.375 20.125 C-3.6875 22.125 -3.6875 22.125 -2.375 24.125 C-1.055 24.125 0.265 24.125 1.625 24.125 C1.295 23.135 0.965 22.145 0.625 21.125 C-1.60050395 19.98686843 -1.60050395 19.98686843 -4.25 19.125 C-10.2487406 17.02631524 -10.2487406 17.02631524 -12.375 14.125 C-13.05206156 11.06129644 -12.98648145 8.19908402 -12.375 5.125 C-8.468752 1.01316 -5.52124641 -0.01480227 0 0 Z " fill="#395435" transform="translate(232.375,236.875)"/>
<path d="M0 0 C0 2.97 0 5.94 0 9 C0.969375 8.979375 1.93875 8.95875 2.9375 8.9375 C6 9 6 9 7 10 C7.14115161 12.67058851 7.04247107 15.32432238 7 18 C4.69 18 2.38 18 0 18 C0.33 22.29 0.66 26.58 1 31 C2.98 31 4.96 31 7 31 C7 33.97 7 36.94 7 40 C-5.88712896 40.6883333 -5.88712896 40.6883333 -9.6875 38.25 C-12.99050606 35.03626438 -13.93169871 33.20756688 -14.1953125 28.546875 C-14.17210937 27.29390625 -14.14890625 26.0409375 -14.125 24.75 C-14.10695313 23.48671875 -14.08890625 22.2234375 -14.0703125 20.921875 C-14.04710937 19.95765625 -14.02390625 18.9934375 -14 18 C-15.65 18 -17.3 18 -19 18 C-19 15.36 -19 12.72 -19 10 C-17.35 10 -15.7 10 -14 10 C-14 7.69 -14 5.38 -14 3 C-12.4188708 2.49307308 -10.83498617 1.99473557 -9.25 1.5 C-8.36828125 1.2215625 -7.4865625 0.943125 -6.578125 0.65625 C-4 0 -4 0 0 0 Z " fill="#3C5637" transform="translate(295,228)"/>
<path d="M0 0 C0.33 0.99 0.66 1.98 1 3 C1.7425 2.505 2.485 2.01 3.25 1.5 C6 0 6 0 10 0 C10 3.96 10 7.92 10 12 C6.7 12 3.4 12 0 12 C0 15.3 0 18.6 0 22 C2.31 22 4.62 22 7 22 C7 24.97 7 27.94 7 31 C-1.25 31 -9.5 31 -18 31 C-18 28.03 -18 25.06 -18 22 C-16.68 22 -15.36 22 -14 22 C-14 17.71 -14 13.42 -14 9 C-15.32 9 -16.64 9 -18 9 C-18 6.36 -18 3.72 -18 1 C-16.12528812 0.83012319 -14.25021305 0.66425224 -12.375 0.5 C-11.33085938 0.4071875 -10.28671875 0.314375 -9.2109375 0.21875 C-6.12853212 0.00875645 -3.08834771 -0.03709727 0 0 Z " fill="#3D5739" transform="translate(119,237)"/>
<path d="M0 0 C0.33 1.32 0.66 2.64 1 4 C1.7425 3.34 2.485 2.68 3.25 2 C6 0 6 0 10 0 C10 3.96 10 7.92 10 12 C8.700625 11.979375 7.40125 11.95875 6.0625 11.9375 C4.70834367 11.91600546 3.35243917 11.92851801 2 12 C0.41727399 13.58272601 0.65264253 15.38034003 0.4375 17.5625 C0.35371094 18.38878906 0.26992188 19.21507812 0.18359375 20.06640625 C0.09271484 21.02353516 0.09271484 21.02353516 0 22 C2.31 22 4.62 22 7 22 C7 24.97 7 27.94 7 31 C-1.25 31 -9.5 31 -18 31 C-18 28.03 -18 25.06 -18 22 C-16.35 22 -14.7 22 -13 22 C-13 17.71 -13 13.42 -13 9 C-14.32 9 -15.64 9 -17 9 C-17 6.36 -17 3.72 -17 1 C-11.30494264 0.3583034 -5.73266804 -0.12462322 0 0 Z " fill="#3B5536" transform="translate(545,237)"/>
<path d="M0 0 C2.97 0 5.94 0 9 0 C9.33 1.32 9.66 2.64 10 4 C10.763125 3.34 11.52625 2.68 12.3125 2 C16.7817563 -1.05847901 21.80920149 -0.33250667 27 0 C27 2.64 27 5.28 27 8 C26.00419922 8.03867188 26.00419922 8.03867188 24.98828125 8.078125 C19.50028833 8.43063841 15.89137355 8.74381018 12 13 C9.53520136 16.69446051 9.65455498 20.5329218 9.5859375 24.828125 C9.56657135 25.57713074 9.5472052 26.32613647 9.5272522 27.09783936 C9.46764284 29.48177836 9.42114646 31.86576614 9.375 34.25 C9.33680299 35.86981231 9.29775025 37.48960468 9.2578125 39.109375 C9.16195687 43.07275406 9.07785754 47.03622819 9 51 C6.03 51 3.06 51 0 51 C0 34.17 0 17.34 0 0 Z " fill="#FCFDFA" transform="translate(560,97)"/>
<path d="M0 0 C2.97 0 5.94 0 9 0 C9.33 1.65 9.66 3.3 10 5 C10.763125 4.175 11.52625 3.35 12.3125 2.5 C16.17356001 -0.80283447 19.92836511 -0.40334296 24.8046875 -0.17578125 C25.52914062 -0.11777344 26.25359375 -0.05976562 27 0 C27 2.64 27 5.28 27 8 C26.00419922 8.03867188 26.00419922 8.03867188 24.98828125 8.078125 C19.50028833 8.43063841 15.89137355 8.74381018 12 13 C9.53520136 16.69446051 9.65455498 20.5329218 9.5859375 24.828125 C9.56657135 25.57713074 9.5472052 26.32613647 9.5272522 27.09783936 C9.46764284 29.48177836 9.42114646 31.86576614 9.375 34.25 C9.33680299 35.86981231 9.29775025 37.48960468 9.2578125 39.109375 C9.16195687 43.07275406 9.07785754 47.03622819 9 51 C6.03 51 3.06 51 0 51 C0 34.17 0 17.34 0 0 Z " fill="#FDFEFD" transform="translate(126,97)"/>
<path d="M0 0 C4.27226658 3.57678133 4.27226658 3.57678133 5.6875 6.25 C5.6875 8.23 5.6875 10.21 5.6875 12.25 C-3.2225 12.25 -12.1325 12.25 -21.3125 12.25 C-20.2385437 5.80626217 -18.68163629 2.8058965 -13.5 -1.125 C-8.35000258 -2.59642784 -4.65112529 -2.45719826 0 0 Z " fill="#74B905" transform="translate(189.3125,105.75)"/>
<path d="M0 0 C2.72017039 2.34061174 4.24979427 4.03772583 5.6875 7.3125 C5.6875 8.9625 5.6875 10.6125 5.6875 12.3125 C-3.2225 12.3125 -12.1325 12.3125 -21.3125 12.3125 C-20.2385437 5.86876217 -18.68163629 2.8683965 -13.5 -1.0625 C-8.37965237 -2.52545646 -4.65895078 -2.37342776 0 0 Z " fill="#74B904" transform="translate(623.3125,105.6875)"/>
<path d="M0 0 C6 0 6 0 7.8125 1.3125 C10.28070498 4.81994918 10.19298125 8.22213415 10.25 12.375 C10.28867188 14.05722656 10.28867188 14.05722656 10.328125 15.7734375 C9.95418379 19.45052607 9.46986121 21.23897629 7 24 C4.69 24.33 2.38 24.66 0 25 C0 16.75 0 8.5 0 0 Z " fill="#FDFDFD" transform="translate(64,233)"/>
<path d="M0 0 C3.375 -0.1875 3.375 -0.1875 7 0 C9.47342266 3.71013399 9.38503486 5.61060262 9 10 C7.5 12.4375 7.5 12.4375 6 14 C3.03 13.505 3.03 13.505 0 13 C0 8.71 0 4.42 0 0 Z " fill="#ECEFEC" transform="translate(495,246)"/>
<path d="M0 0 C2.0625 0.25 2.0625 0.25 4 1 C5.16983345 3.3396669 5.1661241 4.83391527 5.1875 7.4375 C5.20167969 8.21996094 5.21585937 9.00242188 5.23046875 9.80859375 C5 12 5 12 3 15 C-0.875 14.125 -0.875 14.125 -2 13 C-2.12487758 11.19072719 -2.17570846 9.37603893 -2.1875 7.5625 C-2.20167969 6.57378906 -2.21585937 5.58507812 -2.23046875 4.56640625 C-2 2 -2 2 0 0 Z " fill="#F3F5F3" transform="translate(327,245)"/>
<path d="M0 0 C5.94 0 11.88 0 18 0 C18 0.99 18 1.98 18 3 C13.47405537 5.64933344 10.24696826 6.66779596 5 6 C2.0625 4.125 2.0625 4.125 0 2 C0 1.34 0 0.68 0 0 Z " fill="#DEE2DD" transform="translate(151,254)"/>
<path d="M0 0 C5.61 0 11.22 0 17 0 C12.08 4.92 12.08 4.92 7.625 5.25 C3.89430426 4.99271064 2.55133868 4.65339223 0 2 C0 1.34 0 0.68 0 0 Z " fill="#F4F5F3" transform="translate(578,255)"/>
<path d="M0 0 C1.67542976 0.28604898 3.34385343 0.61781233 5 1 C5.33 2.65 5.66 4.3 6 6 C3.36 6 0.72 6 -2 6 C-1.125 1.125 -1.125 1.125 0 0 Z " fill="#DFE3DE" transform="translate(153,244)"/>
<path d="M0 0 C1.67542976 0.28604898 3.34385343 0.61781233 5 1 C5.33 2.65 5.66 4.3 6 6 C3.36 6 0.72 6 -2 6 C-1.125 1.125 -1.125 1.125 0 0 Z " fill="#E1E5E1" transform="translate(579,244)"/>
<path d="M0 0 C1.65 0 3.3 0 5 0 C5.66 1.32 6.32 2.64 7 4 C9.64 4 12.28 4 15 4 C15 4.33 15 4.66 15 5 C4.98434247 6.61472474 4.98434247 6.61472474 1 4 C0.1875 1.875 0.1875 1.875 0 0 Z " fill="#E2E6E1" transform="translate(234,243)"/>
<path d="M0 0 C4.75 0.75 4.75 0.75 7 3 C9.32275177 3.40047444 11.65739357 3.7397104 14 4 C14 4.33 14 4.66 14 5 C8.05542387 6.09644404 4.32006564 6.41029848 -1 3 C-0.67 2.01 -0.34 1.02 0 0 Z " fill="#E2E6E1" transform="translate(621,243)"/>
<path d="M0 0 C1.65 0.33 3.3 0.66 5 1 C5.33 1.99 5.66 2.98 6 4 C8.64 4 11.28 4 14 4 C14 4.33 14 4.66 14 5 C8.05542387 6.09644404 4.32006564 6.41029848 -1 3 C-0.67 2.01 -0.34 1.02 0 0 Z " fill="#E6E9E5" transform="translate(661,243)"/>
<path d="M0 0 C1.65 0.33 3.3 0.66 5 1 C5.33 1.99 5.66 2.98 6 4 C8.64 4 11.28 4 14 4 C14 4.33 14 4.66 14 5 C8.05542387 6.09644404 4.32006564 6.41029848 -1 3 C-0.67 2.01 -0.34 1.02 0 0 Z " fill="#E7EAE6" transform="translate(195,243)"/>
<path d="M0 0 C6.64615385 1.47692308 6.64615385 1.47692308 8.4375 4.125 C8.7159375 5.053125 8.7159375 5.053125 9 6 C7.35 6.33 5.7 6.66 4 7 C0 2.25 0 2.25 0 0 Z " fill="#ECEFEC" transform="translate(226,255)"/>
<path d="M0 0 C2.56695636 0.39491636 4.67123994 0.83561997 7 2 C7 3.32 7 4.64 7 6 C4.125 5.75 4.125 5.75 1 5 C-0.375 2.9375 -0.375 2.9375 -1 1 C-0.67 0.67 -0.34 0.34 0 0 Z " fill="#EDEFEC" transform="translate(614,256)"/>
<path d="M0 0 C2.31 0.66 4.62 1.32 7 2 C7 3.32 7 4.64 7 6 C4.03 5.505 4.03 5.505 1 5 C0.67 3.35 0.34 1.7 0 0 Z " fill="#EFF1EE" transform="translate(654,256)"/>
<path d="M0 0 C2.31 0.66 4.62 1.32 7 2 C7 3.32 7 4.64 7 6 C4.03 5.505 4.03 5.505 1 5 C0.67 3.35 0.34 1.7 0 0 Z " fill="#EEF0EE" transform="translate(188,256)"/>
</svg>
